<?xml version="1.0" encoding="utf-8"?>
<!-- Generator: Adobe Illustrator 27.5.0, SVG Export Plug-In . SVG Version: 6.00 Build 0)  -->
<svg version="1.1" xmlns="http://www.w3.org/2000/svg" xmlns:xlink="http://www.w3.org/1999/xlink" x="0px" y="0px"
	 viewBox="0 0 500 500" style="enable-background:new 0 0 500 500;" xml:space="preserve">
<g id="Background">
	<rect style="fill:#FFFFFF;" width="500" height="500"/>
</g>
<g id="Objects">
	<g>
		<g>
			<g>
				<g>
					<path style="fill:#D9DFE6;" d="M407.323,356.175H110.999V198.089c0-10.106,8.192-18.298,18.298-18.298h259.728
						c10.106,0,18.298,8.192,18.298,18.298V356.175z"/>
					<path style="fill:#C0C6CC;" d="M421.109,352.876v6.861c0,7.351-5.958,13.313-13.309,13.313H110.523
						c-7.351,0-13.313-5.962-13.313-13.313v-6.861H421.109z"/>
					<rect x="113.447" y="200.682" style="fill:#1D2C52;" width="290.555" height="149.511"/>
					<polygon style="fill:#141E38;" points="377.927,200.682 365.364,350.194 158.148,350.194 170.71,200.682 					"/>
					<path style="fill:#FFFFFF;" d="M284.379,352.876c-0.615,1.811-1.642,3.435-2.969,4.762c-2.233,2.233-5.315,3.618-8.702,3.618
						h-24.085c-5.402,0-10.022-3.522-11.675-8.381H284.379z"/>
				</g>
				<circle style="fill:#1D2C52;" cx="259.16" cy="190.318" r="4.21"/>
			</g>
			<path style="fill:#304B6E;" d="M362.005,350.195H154.787v-201.58c0-7.785,6.311-14.096,14.096-14.096h179.025
				c7.785,0,14.096,6.311,14.096,14.096V350.195z"/>
			<g>
				<circle style="fill:#34909D;" cx="345.432" cy="147.842" r="5.334"/>
				<circle style="fill:#F8B85E;" cx="329.622" cy="147.842" r="5.334"/>
				<circle style="fill:#BA0034;" cx="313.813" cy="147.842" r="5.334"/>
			</g>
			<rect x="142.828" y="161.642" style="fill:#34909D;" width="196.945" height="34.755"/>
			
				<text transform="matrix(1 0 0 1 157.166 184.355)" style="fill:#FFFFFF; font-family:'Montserrat-Black'; font-size:16.1726px; letter-spacing:1;">Yourwebsite.com</text>
			<rect x="338.284" y="159.831" style="fill:#1D2C52;" width="7.896" height="39.479"/>
			<path style="fill:#304B6E;" d="M450.351,141.583c0-2.563,1.975-4.665,4.483-4.871c-0.13-0.779-0.29-1.544-0.478-2.298
				c-0.217-0.87-0.475-1.725-0.768-2.563c-2.302,1.033-5.045,0.149-6.285-2.099c-1.24-2.244-0.526-5.035,1.566-6.43
				c-1.171-1.475-2.479-2.831-3.907-4.056c-1.472,2.044-4.288,2.65-6.484,1.33c-2.197-1.319-2.979-4.096-1.867-6.354
				c-1.729-0.681-3.541-1.203-5.415-1.548c-0.246,2.508-2.378,4.447-4.944,4.408c-2.566-0.04-4.636-2.051-4.802-4.567
				c-1.885,0.286-3.711,0.75-5.462,1.377c1.047,2.294,0.178,5.045-2.066,6.296c-2.236,1.25-5.031,0.555-6.441-1.533
				c-1.464,1.178-2.816,2.494-4.031,3.929c2.048,1.461,2.671,4.273,1.363,6.477c-1.308,2.207-4.081,3.005-6.346,1.899
				c-0.431,1.113-0.794,2.258-1.087,3.432c-0.167,0.656-0.308,1.319-0.428,1.993c2.508,0.236,4.458,2.356,4.433,4.919
				c-0.029,2.566-2.026,4.647-4.542,4.828c0.294,1.885,0.768,3.708,1.403,5.459c2.287-1.062,5.045-0.206,6.31,2.03
				c1.261,2.233,0.58,5.031-1.504,6.448c1.189,1.461,2.512,2.805,3.951,4.012c1.454-2.059,4.263-2.697,6.474-1.399
				c2.215,1.298,3.026,4.067,1.932,6.339c1.74,0.66,3.556,1.16,5.433,1.486c0.221-2.512,2.334-4.473,4.897-4.458
				c2.566,0.011,4.658,1.997,4.85,4.512c1.885-0.304,3.708-0.786,5.451-1.428c-1.073-2.284-0.232-5.046,1.997-6.321
				c2.225-1.276,5.031-0.605,6.459,1.468c1.453-1.192,2.791-2.523,3.994-3.972c-2.07-1.439-2.726-4.244-1.439-6.466
				c1.287-2.218,4.052-3.045,6.328-1.964c0.656-1.74,1.145-3.559,1.457-5.441C452.327,146.252,450.351,144.15,450.351,141.583z
				 M425.838,152.635c-6.118,0-11.077-4.958-11.077-11.077c0-2.718,0.982-5.212,2.613-7.144c2.03-2.403,5.067-3.933,8.463-3.933
				c3.396,0,6.434,1.529,8.463,3.933c1.631,1.932,2.613,4.426,2.613,7.144C436.915,147.676,431.957,152.635,425.838,152.635z"/>
			<path style="fill:#D9DFE6;" d="M452.593,184.368c0-1.281,0.988-2.332,2.242-2.436c-0.065-0.39-0.145-0.772-0.239-1.149
				c-0.109-0.435-0.237-0.863-0.384-1.281c-1.151,0.517-2.523,0.074-3.143-1.049c-0.62-1.122-0.263-2.517,0.783-3.215
				c-0.585-0.738-1.24-1.415-1.954-2.028c-0.736,1.022-2.144,1.325-3.242,0.665c-1.098-0.66-1.49-2.048-0.933-3.177
				c-0.864-0.341-1.771-0.602-2.707-0.774c-0.123,1.254-1.189,2.224-2.472,2.204c-1.283-0.02-2.318-1.026-2.401-2.283
				c-0.942,0.143-1.856,0.375-2.731,0.689c0.524,1.147,0.089,2.523-1.033,3.148c-1.118,0.625-2.515,0.277-3.22-0.767
				c-0.732,0.589-1.408,1.247-2.015,1.965c1.024,0.73,1.336,2.137,0.681,3.239c-0.654,1.104-2.041,1.502-3.173,0.95
				c-0.216,0.556-0.397,1.129-0.544,1.716c-0.083,0.328-0.154,0.66-0.214,0.997c1.254,0.118,2.229,1.178,2.216,2.459
				c-0.014,1.283-1.013,2.323-2.271,2.414c0.147,0.943,0.384,1.854,0.701,2.729c1.144-0.531,2.523-0.103,3.155,1.015
				c0.631,1.116,0.29,2.515-0.752,3.224c0.594,0.73,1.256,1.403,1.975,2.006c0.727-1.029,2.131-1.348,3.237-0.7
				c1.107,0.649,1.513,2.033,0.966,3.17c0.87,0.33,1.778,0.58,2.717,0.743c0.111-1.256,1.167-2.236,2.448-2.229
				c1.283,0.005,2.329,0.999,2.425,2.256c0.942-0.152,1.854-0.393,2.726-0.714c-0.536-1.142-0.116-2.523,0.999-3.161
				c1.113-0.638,2.515-0.303,3.229,0.734c0.727-0.596,1.395-1.261,1.997-1.986c-1.035-0.719-1.363-2.122-0.72-3.233
				c0.643-1.109,2.026-1.522,3.164-0.982c0.328-0.87,0.573-1.78,0.728-2.72C453.581,186.703,452.593,185.652,452.593,184.368z
				 M440.336,189.894c-3.059,0-5.538-2.479-5.538-5.538c0-1.359,0.491-2.606,1.307-3.572c1.015-1.202,2.534-1.966,4.232-1.966
				c1.698,0,3.217,0.765,4.232,1.966c0.815,0.966,1.307,2.213,1.307,3.572C445.875,187.415,443.396,189.894,440.336,189.894z"/>
			<g>
				<g>
					<path style="fill:#D9DFE6;" d="M71.618,207.378L71.618,207.378c-4.741,4.741-4.741,12.428,0,17.17l54.266,54.266l7.442,0h9.728
						l0-17.17l-54.266-54.266C84.047,202.637,76.36,202.637,71.618,207.378z"/>
					<polygon style="fill:#BA0034;" points="73.041,225.968 125.722,278.649 142.888,261.482 94.771,213.364 90.212,208.801 					
						"/>
					<polygon style="fill:#BA0034;" points="143.054,269.086 133.327,278.814 143.054,278.814 					"/>
				</g>
			</g>
			<g>
				<g>
					<path style="fill:#34909D;" d="M360.962,433.578h-50.166v-85.361h37.297c5.026,5.026,7.843,7.843,12.869,12.869V433.578z"/>
					<g>
						<rect x="317.967" y="359.277" style="fill:#D9DFE6;" width="35.881" height="2.456"/>
						<rect x="317.967" y="365.38" style="fill:#D9DFE6;" width="35.881" height="2.456"/>
						<rect x="317.967" y="371.482" style="fill:#D9DFE6;" width="35.881" height="2.456"/>
						<rect x="317.967" y="377.585" style="fill:#D9DFE6;" width="35.881" height="2.456"/>
						<rect x="317.967" y="383.687" style="fill:#D9DFE6;" width="35.881" height="2.456"/>
						<rect x="317.967" y="389.79" style="fill:#D9DFE6;" width="21.12" height="2.456"/>
					</g>
					<g>
						<rect x="317.967" y="402.067" style="fill:#D9DFE6;" width="35.881" height="2.456"/>
						<rect x="317.967" y="408.17" style="fill:#D9DFE6;" width="35.881" height="2.456"/>
						<rect x="317.967" y="414.272" style="fill:#D9DFE6;" width="35.881" height="2.456"/>
						<rect x="317.967" y="420.375" style="fill:#D9DFE6;" width="21.12" height="2.456"/>
					</g>
					<path style="fill:#277D8A;" d="M360.962,361.086h-12.869v-12.869l0,0C353.119,353.243,355.937,356.061,360.962,361.086
						L360.962,361.086z"/>
				</g>
				<g>
					<path style="fill:#FFFFFF;" d="M336.034,421.493h-50.166v-85.361h37.297c5.026,5.026,7.843,7.843,12.869,12.869V421.493z"/>
					<g>
						<rect x="293.039" y="347.192" style="fill:#1D2C52;" width="35.88" height="2.456"/>
						<rect x="293.039" y="353.295" style="fill:#1D2C52;" width="35.88" height="2.456"/>
						<rect x="293.039" y="359.397" style="fill:#1D2C52;" width="35.88" height="2.456"/>
						<rect x="293.039" y="365.5" style="fill:#1D2C52;" width="35.88" height="2.456"/>
						<rect x="293.039" y="371.602" style="fill:#1D2C52;" width="35.88" height="2.456"/>
						<rect x="293.039" y="377.704" style="fill:#1D2C52;" width="21.12" height="2.456"/>
					</g>
					<g>
						<rect x="293.039" y="389.982" style="fill:#1D2C52;" width="35.88" height="2.456"/>
						<rect x="293.039" y="396.084" style="fill:#1D2C52;" width="35.88" height="2.456"/>
						<rect x="293.039" y="402.187" style="fill:#1D2C52;" width="35.88" height="2.456"/>
						<rect x="293.039" y="408.289" style="fill:#1D2C52;" width="21.12" height="2.456"/>
					</g>
					<path style="fill:#BCC6D1;" d="M336.034,349.001h-12.869v-12.869l0,0C328.191,341.158,331.009,343.975,336.034,349.001
						L336.034,349.001z"/>
				</g>
			</g>
			<g>
				<rect x="164.854" y="204.862" style="fill:#D9DFE6;" width="111.934" height="67.372"/>
				<polygon style="fill:#FFFFFF;" points="276.788,204.862 274.901,204.862 220.828,237.024 167.691,204.862 164.854,204.862 
					164.854,206.2 218.284,238.538 164.854,270.316 164.854,272.234 166.741,272.234 220.814,240.069 273.957,272.234 
					276.788,272.234 276.788,270.897 223.357,238.559 276.788,206.777 				"/>
			</g>
			<g>
				<rect x="283.807" y="204.862" style="fill:#D9DFE6;" width="60.569" height="36.456"/>
				<polygon style="fill:#FFFFFF;" points="344.376,204.862 343.355,204.862 314.095,222.265 285.342,204.862 283.807,204.862 
					283.807,205.586 312.719,223.085 283.807,240.28 283.807,241.318 284.828,241.318 314.087,223.913 342.844,241.318 
					344.376,241.318 344.376,240.594 315.464,223.096 344.376,205.898 				"/>
			</g>
			<g>
				<rect x="283.807" y="246.87" style="fill:#D9DFE6;" width="60.569" height="36.456"/>
				<polygon style="fill:#FFFFFF;" points="344.376,246.87 343.355,246.87 314.095,264.273 285.342,246.87 283.807,246.87 
					283.807,247.594 312.719,265.092 283.807,282.288 283.807,283.326 284.828,283.326 314.087,265.921 342.844,283.326 
					344.376,283.326 344.376,282.602 315.464,265.104 344.376,247.906 				"/>
			</g>
			<g>
				<rect x="283.807" y="288.878" style="fill:#D9DFE6;" width="60.569" height="36.456"/>
				<polygon style="fill:#FFFFFF;" points="344.376,288.878 343.355,288.878 314.095,306.281 285.342,288.878 283.807,288.878 
					283.807,289.602 312.719,307.1 283.807,324.296 283.807,325.334 284.828,325.334 314.087,307.929 342.844,325.334 
					344.376,325.334 344.376,324.61 315.464,307.112 344.376,289.914 				"/>
			</g>
			<rect x="164.854" y="280.989" style="fill:#1D2C52;" width="111.934" height="4.853"/>
			<rect x="164.854" y="291.518" style="fill:#1D2C52;" width="111.934" height="4.853"/>
			<rect x="164.854" y="302.048" style="fill:#1D2C52;" width="111.934" height="4.853"/>
			<rect x="164.854" y="312.578" style="fill:#1D2C52;" width="111.934" height="4.853"/>
			<rect x="164.854" y="323.108" style="fill:#1D2C52;" width="111.934" height="4.853"/>
			<rect x="164.854" y="333.637" style="fill:#1D2C52;" width="72.094" height="4.853"/>
			<g>
				<g>
					<path style="fill:#1D2C52;" d="M97.21,156.915c11.476,0,21.621-5.693,27.768-14.408c-6.147-8.715-16.292-14.408-27.768-14.408
						c-11.475,0-21.621,5.693-27.768,14.408C75.59,151.223,85.735,156.915,97.21,156.915z"/>
				</g>
				
					<ellipse transform="matrix(0.2298 -0.9732 0.9732 0.2298 -63.8195 204.3764)" style="fill:#D9DFE6;" cx="97.21" cy="142.508" rx="8.861" ry="8.861"/>
			</g>
			<path style="fill:#D9DFE6;" d="M136.74,73.09c-0.104-10.307-8.49-18.631-18.822-18.631c-5.311,0-10.107,2.2-13.53,5.737
				c-0.457-0.039-0.918-0.063-1.385-0.063c-7.73,0-14.179,5.486-15.665,12.778c-0.107-0.004-0.214-0.008-0.323-0.008
				c-5.303,0-9.603,4.299-9.603,9.603c0,5.303,4.299,9.603,9.603,9.603h47.831c5.303,0,9.603-4.299,9.603-9.603
				C144.45,77.85,141.137,73.969,136.74,73.09z"/>
			<path style="fill:none;stroke:#1D2C52;stroke-width:2.4192;stroke-miterlimit:10;stroke-dasharray:2.7648;" d="M132.502,58.788
				c4.242-1.219,8.723-1.872,13.356-1.872h0c26.654,0,48.261,21.607,48.261,48.261v29.342"/>
			<path style="fill:none;stroke:#1D2C52;stroke-width:2.4192;stroke-miterlimit:10;stroke-dasharray:2.7648;" d="M97.597,119.079
				v-13.902c0-14.033,5.99-26.668,15.552-35.486"/>
			<path style="fill:#BA0034;" d="M197.089,134.519c0,1.641-1.33,2.971-2.97,2.971c-1.641,0-2.971-1.33-2.971-2.971
				c0-1.641,1.33-2.971,2.971-2.971C195.759,131.549,197.089,132.879,197.089,134.519z"/>
			<path style="fill:none;stroke:#1D2C52;stroke-width:1.2774;stroke-miterlimit:10;stroke-dasharray:1.9161;" d="M425.013,107.953
				L425.013,107.953c0-11.626-9.425-21.05-21.05-21.05H274.556c-11.626,0-21.05,9.424-21.05,21.05v25.694"/>
			<path style="fill:#D9DFE6;" d="M458.971,237.41c0,2.602-1.064,4.966-2.779,6.68c-1.714,1.714-4.078,2.779-6.681,2.779h-91.018
				c-5.205,0-9.459-4.254-9.459-9.459c0-2.602,1.065-4.966,2.779-6.677c1.714-1.714,4.078-2.779,6.681-2.779h91.018
				C454.716,227.954,458.971,232.208,458.971,237.41z"/>
			<path style="fill:#D9DFE6;" d="M458.971,262.777c0,2.602-1.064,4.966-2.779,6.677c-1.714,1.714-4.078,2.779-6.681,2.779h-91.018
				c-5.205,0-9.459-4.254-9.459-9.456c0-2.602,1.065-4.966,2.779-6.68c1.714-1.714,4.078-2.779,6.681-2.779h91.018
				C454.716,253.318,458.971,257.572,458.971,262.777z"/>
			<path style="fill:#D9DFE6;" d="M458.971,288.141c0,2.599-1.064,4.963-2.779,6.677c-1.714,1.714-4.078,2.779-6.681,2.779h-91.018
				c-5.205,0-9.459-4.254-9.459-9.456c0-2.602,1.065-4.966,2.779-6.68c1.714-1.714,4.078-2.779,6.681-2.779h91.018
				C454.716,278.681,458.971,282.936,458.971,288.141z"/>
			<path style="fill:#D9DFE6;" d="M458.971,313.504c0,2.603-1.064,4.966-2.779,6.677c-1.714,1.714-4.078,2.779-6.681,2.779h-91.018
				c-5.205,0-9.459-4.254-9.459-9.456c0-2.602,1.065-4.966,2.779-6.681c1.714-1.714,4.078-2.779,6.681-2.779h91.018
				C454.716,304.045,458.971,308.299,458.971,313.504z"/>
			<g>
				<polygon style="fill:#CAD1D9;" points="410.87,304.045 408.077,322.96 384.946,322.96 387.739,304.045 				"/>
				<polygon style="fill:#CAD1D9;" points="414.616,278.681 411.824,297.596 388.692,297.596 391.485,278.681 				"/>
				<polygon style="fill:#CAD1D9;" points="418.362,253.318 415.57,272.233 392.439,272.233 395.231,253.318 				"/>
				<polygon style="fill:#CAD1D9;" points="422.105,227.954 419.313,246.869 396.182,246.869 398.978,227.954 				"/>
			</g>
			<path style="fill:#1D2C52;" d="M365.122,237.411c0,3.152-2.556,5.708-5.708,5.708c-3.152,0-5.708-2.555-5.708-5.708
				s2.556-5.708,5.708-5.708C362.566,231.703,365.122,234.259,365.122,237.411z"/>
			<path style="fill:#BA0034;" d="M365.122,262.775c0,3.152-2.556,5.708-5.708,5.708c-3.152,0-5.708-2.555-5.708-5.708
				c0-3.152,2.556-5.708,5.708-5.708C362.566,257.067,365.122,259.623,365.122,262.775z"/>
			<path style="fill:#1D2C52;" d="M365.122,288.139c0,3.152-2.556,5.708-5.708,5.708c-3.152,0-5.708-2.555-5.708-5.708
				c0-3.152,2.556-5.708,5.708-5.708C362.566,282.431,365.122,284.987,365.122,288.139z"/>
			<path style="fill:#1D2C52;" d="M365.122,313.503c0,3.152-2.556,5.708-5.708,5.708c-3.152,0-5.708-2.555-5.708-5.708
				c0-3.152,2.556-5.708,5.708-5.708C362.566,307.795,365.122,310.35,365.122,313.503z"/>
			<path style="fill:#304B6E;" d="M73.771,391.175c5.818,6.099,15.481,6.186,21.407,0.259c4.032-4.032,5.28-9.793,3.745-14.897
				c-0.65-2.16-0.063-4.503,1.533-6.098l21.582-21.583c1.595-1.595,3.938-2.182,6.098-1.533c5.103,1.535,10.865,0.288,14.897-3.745
				c3.952-3.953,5.227-9.566,3.831-14.593l-9.031,9.031l-8.119-2.175l-2.176-8.119l9.088-9.087
				c-5.066-1.465-10.754-0.204-14.747,3.789c-4.032,4.032-5.28,9.794-3.745,14.897c0.65,2.16,0.063,4.503-1.533,6.098
				l-21.583,21.583c-1.594,1.594-3.935,2.184-6.093,1.534c-5.127-1.544-10.918-0.279-14.953,3.796
				C68.31,376.049,68.217,385.352,73.771,391.175z M79.314,375.569l7.312-1.959l5.353,5.353l-1.959,7.312l-7.312,1.959l-5.353-5.353
				L79.314,375.569z"/>
			<path style="fill:#D9DFE6;" d="M54.956,257.258h-8.475c-1.383,0-2.505-1.121-2.505-2.505v-8.475c0-1.146-0.818-2.172-1.954-2.323
				c-1.376-0.182-2.562,0.896-2.562,2.238v8.559c0,1.383-1.121,2.505-2.505,2.505h-8.474c-1.146,0-2.172,0.818-2.323,1.955
				c-0.182,1.376,0.896,2.562,2.238,2.562h8.559c1.383,0,2.505,1.121,2.505,2.505v8.475c0,1.146,0.818,2.172,1.955,2.323
				c1.376,0.182,2.562-0.896,2.562-2.238v-8.559c0-1.383,1.121-2.505,2.505-2.505h8.559c1.342,0,2.42-1.186,2.238-2.562
				C57.128,258.077,56.102,257.258,54.956,257.258z"/>
			<path style="fill:#D9DFE6;" d="M422.381,399.809h-8.474c-1.383,0-2.505-1.121-2.505-2.505l0-8.475
				c0-1.146-0.818-2.172-1.954-2.323c-1.376-0.182-2.562,0.896-2.562,2.238v8.559c0,1.383-1.121,2.505-2.505,2.505h-8.475
				c-1.146,0-2.172,0.818-2.323,1.955c-0.182,1.376,0.896,2.562,2.238,2.562h8.559c1.383,0,2.505,1.121,2.505,2.505v8.475
				c0,1.146,0.818,2.172,1.955,2.323c1.376,0.182,2.562-0.896,2.562-2.238v-8.559c0-1.383,1.121-2.505,2.505-2.505h8.559
				c1.342,0,2.42-1.186,2.238-2.562C424.553,400.627,423.527,399.809,422.381,399.809z"/>
			<g>
				<path style="fill:#D9DFE6;" d="M171.398,404.475h-35.81c-4.912,0-8.931-4.019-8.931-8.931l0,0c0-4.912,4.019-8.931,8.931-8.931
					h35.81c4.912,0,8.931,4.019,8.931,8.931l0,0C180.329,400.456,176.311,404.475,171.398,404.475z"/>
				<g>
					<path style="fill:#34909D;" d="M145.71,395.544c0,2.301-1.865,4.166-4.166,4.166c-2.301,0-4.166-1.865-4.166-4.166
						c0-2.301,1.865-4.166,4.166-4.166C143.845,391.378,145.71,393.243,145.71,395.544z"/>
					<path style="fill:#34909D;" d="M157.659,395.544c0,2.301-1.865,4.166-4.166,4.166c-2.301,0-4.166-1.865-4.166-4.166
						c0-2.301,1.865-4.166,4.166-4.166C155.794,391.378,157.659,393.243,157.659,395.544z"/>
					<path style="fill:#34909D;" d="M169.609,395.544c0,2.301-1.865,4.166-4.166,4.166c-2.301,0-4.166-1.865-4.166-4.166
						c0-2.301,1.865-4.166,4.166-4.166C167.744,391.378,169.609,393.243,169.609,395.544z"/>
				</g>
			</g>
			<path style="fill:#D9DFE6;" d="M298.295,85.632c-0.141-13.948-11.489-25.213-25.471-25.213c-7.187,0-13.677,2.977-18.309,7.764
				c-0.618-0.053-1.243-0.086-1.875-0.086c-10.461,0-19.188,7.425-21.199,17.292c-0.145-0.005-0.29-0.011-0.436-0.011
				c-7.177,0-12.995,5.818-12.995,12.995c0,7.177,5.818,12.995,12.995,12.995h64.728c7.177,0,12.995-5.818,12.995-12.995
				C308.728,92.073,304.245,86.822,298.295,85.632z"/>
			<path style="fill:#34909D;" d="M471,212.06c0,2.128-1.725,3.853-3.853,3.853c-2.128,0-3.853-1.725-3.853-3.853
				s1.725-3.853,3.853-3.853C469.275,208.207,471,209.932,471,212.06z"/>
			<path style="fill:none;stroke:#34909D;stroke-width:1.3824;stroke-miterlimit:10;" d="M371.073,116.243
				c0,2.047-1.66,3.707-3.707,3.707c-2.047,0-3.707-1.659-3.707-3.707c0-2.047,1.66-3.707,3.707-3.707
				C369.413,112.536,371.073,114.196,371.073,116.243z"/>
			<path style="fill:none;stroke:#D9DFE6;stroke-width:1.3824;stroke-miterlimit:10;" d="M161.09,119.95
				c0,1.824-1.479,3.303-3.303,3.303s-3.303-1.479-3.303-3.303c0-1.824,1.479-3.303,3.303-3.303S161.09,118.126,161.09,119.95z"/>
			<circle style="fill:none;stroke:#1D2C52;stroke-width:1.3824;stroke-miterlimit:10;" cx="449.321" cy="345.56" r="7.609"/>
			<path style="fill:#1D2C52;" d="M439.278,377.82c0,1.513-1.226,2.739-2.739,2.739c-1.513,0-2.739-1.226-2.739-2.739
				c0-1.513,1.226-2.739,2.739-2.739C438.052,375.081,439.278,376.307,439.278,377.82z"/>
			<path style="fill:#1D2C52;" d="M250.96,413.688c0,1.513-1.226,2.739-2.739,2.739c-1.513,0-2.739-1.226-2.739-2.739
				c0-1.513,1.226-2.739,2.739-2.739C249.733,410.949,250.96,412.175,250.96,413.688z"/>
			<path style="fill:#1D2C52;" d="M59.51,193.72c0,1.513-1.226,2.739-2.739,2.739c-1.513,0-2.739-1.226-2.739-2.739
				c0-1.513,1.226-2.739,2.739-2.739C58.284,190.981,59.51,192.208,59.51,193.72z"/>
			<path style="fill:#1D2C52;" d="M325.195,118.42c0,1.513-1.226,2.739-2.739,2.739c-1.513,0-2.739-1.226-2.739-2.739
				c0-1.513,1.226-2.739,2.739-2.739C323.969,115.681,325.195,116.908,325.195,118.42z"/>
			<path style="fill:#1D2C52;" d="M215.795,63.721c0,1.513-1.226,2.739-2.739,2.739c-1.513,0-2.739-1.226-2.739-2.739
				c0-1.513,1.226-2.739,2.739-2.739C214.569,60.981,215.795,62.208,215.795,63.721z"/>
		</g>
	</g>
</g>
</svg>
