<?xml version="1.0" encoding="utf-8"?>
<!-- Generator: Adobe Illustrator 27.5.0, SVG Export Plug-In . SVG Version: 6.00 Build 0)  -->
<svg version="1.1" xmlns="http://www.w3.org/2000/svg" xmlns:xlink="http://www.w3.org/1999/xlink" x="0px" y="0px"
	 viewBox="0 0 750 500" style="enable-background:new 0 0 750 500;" xml:space="preserve">
<g id="BACKGROUND">
	<rect style="fill:#FFFFFF;" width="750" height="500"/>
</g>
<g id="OBJECTS">
	<path style="fill:#E1F2F9;" d="M243.91,448.184c0,2.785-39.744,5.044-88.77,5.044c-49.026,0-88.77-2.258-88.77-5.044
		c0-2.786,39.744-5.044,88.77-5.044C204.167,443.14,243.91,445.398,243.91,448.184z"/>
	<path style="fill:#E1F2F9;" d="M686.048,448.184c0,2.785-39.744,5.044-88.77,5.044c-49.026,0-88.77-2.258-88.77-5.044
		c0-2.786,39.744-5.044,88.77-5.044C646.304,443.14,686.048,445.398,686.048,448.184z"/>
	<path style="fill:#E1F2F9;" d="M503.918,448.184c0,2.785-55.269,5.044-123.447,5.044c-68.178,0-123.447-2.258-123.447-5.044
		c0-2.786,55.269-5.044,123.447-5.044C448.649,443.14,503.918,445.398,503.918,448.184z"/>
	<g>
		<path style="fill:#42498D;" d="M109.449,228.602c-1.747,33.009,5.571,195.467,5.571,195.467h27.048
			c0,0,11.846-143.666,11.745-195.467H109.449z"/>
		<path style="fill:#42498D;" d="M197.861,228.602c1.747,33.009-1.09,195.467-1.09,195.467h-27.048
			c0,0-20.964-143.666-20.863-195.467H197.861z"/>
		<polyline style="fill:none;stroke:#616AAA;stroke-miterlimit:10;" points="148.859,232.592 148.859,268.189 153.126,272.456 
			153.126,232.592 		"/>
		<path style="opacity:0.27;fill:#0E153F;" d="M109.192,239.426C142.585,236.667,198.43,250,198.43,250v-21.398h-88.981
			L109.192,239.426z"/>
		<path style="fill:#58AEDD;" d="M139.44,446.49c0,0-1.27,0.33-3.36,0.8c-9.6,2.19-36.57,7.57-37.9-0.8
			c-1.03-6.43,15.01-7.31,20.54-15.77c1.2-1.82,1.91-3.99,1.85-6.65h16.95L139.44,446.49z"/>
		<path style="fill:#58AEDD;" d="M138.198,114.856h28.897l40.875,31.838l-23.097,66.777l-70.479-2.624
			c0,0-21.327-74.164-18.873-75.166C97.974,134.681,138.198,114.856,138.198,114.856z"/>
		<path style="fill:#F4B8AB;" d="M109.51,230.378c-1.27,3.16-5.06-1.89-5.06-1.89s2.22,8.84-0.48,10.74
			c-2.52,1.77-8.47-8.62-8.45-20.05l10.74-1.4C108.99,224.708,110.56,227.758,109.51,230.378z"/>
		<path style="fill:#F4B8AB;" d="M207.97,219.178c0.02,11.43-5.93,21.82-8.45,20.05c-2.69-1.9-0.48-10.74-0.48-10.74
			s-3.79,5.05-5.05,1.89c-1.05-2.61,0.51-5.67,3.24-12.6L207.97,219.178z"/>
		<path style="fill:#58AEDD;" d="M144.31,126.34c-5.71,8.76-35.42,15.61-35.42,15.61c1.14,17.14-2.16,77.13-2.16,77.13l-0.47,0.06
			l-10.74,1.4l-6.32,0.83c0,0-11.711-38.959-0.17-77.8c4.27-14.371,17.58-26.68,53.38-30.9
			C146.2,112.22,150.02,117.58,144.31,126.34z"/>
		<path style="fill:#58AEDD;" d="M214.29,221.37l-6.32-0.83l-10.74-1.4l-0.46-20.06c0,0-3.31-39.99-2.17-57.13
			c0,0-29.71-6.85-35.42-15.61c-5.71-8.76-1.89-14.12,1.91-13.67c35.79,4.22,49.148,16.515,53.37,30.9
			C224.972,179.387,214.29,221.37,214.29,221.37z"/>
		<path style="fill:#CBE9F7;" d="M147.017,111.571c-20.124,1.073-11.704,19.303,5.618,19.303S178.648,109.885,147.017,111.571z"/>
		<g>
			<rect x="102.594" y="140.345" style="fill:#D6E6FD;" width="98.14" height="92.247"/>
			<rect x="109.551" y="146.695" style="fill:#FFFFFF;" width="84.228" height="7.882"/>
			<path style="fill:#CE4687;" d="M116.098,150.636c0,0.941-0.763,1.704-1.704,1.704c-0.941,0-1.704-0.763-1.704-1.704
				c0-0.941,0.763-1.704,1.704-1.704C115.335,148.931,116.098,149.695,116.098,150.636z"/>
			<path style="fill:#42498D;" d="M122.348,150.636c0,0.941-0.763,1.704-1.704,1.704c-0.941,0-1.704-0.763-1.704-1.704
				c0-0.941,0.763-1.704,1.704-1.704C121.584,148.931,122.348,149.695,122.348,150.636z"/>
			<path style="fill:#47C7BA;" d="M128.597,150.636c0,0.941-0.763,1.704-1.704,1.704c-0.941,0-1.704-0.763-1.704-1.704
				c0-0.941,0.763-1.704,1.704-1.704C127.834,148.931,128.597,149.695,128.597,150.636z"/>
			
				<line style="fill:none;stroke:#FFFFFF;stroke-width:2;stroke-linecap:round;stroke-miterlimit:10;" x1="109.551" y1="160.832" x2="109.551" y2="166.881"/>
			<path style="fill:#58AFDC;" d="M131.718,166.881h-14.7c-1.449,0-2.624-1.175-2.624-2.624v-0.801c0-1.449,1.175-2.624,2.624-2.624
				h14.7c1.449,0,2.624,1.175,2.624,2.624v0.801C134.342,165.706,133.167,166.881,131.718,166.881z"/>
			<path style="fill:#FCE292;" d="M184.873,166.881h-44.051c-1.449,0-2.624-1.175-2.624-2.624v-0.801
				c0-1.449,1.175-2.624,2.624-2.624h44.051c1.449,0,2.624,1.175,2.624,2.624v0.801
				C187.497,165.706,186.322,166.881,184.873,166.881z"/>
			
				<line style="fill:none;stroke:#FFFFFF;stroke-width:2;stroke-linecap:round;stroke-miterlimit:10;" x1="109.551" y1="176.362" x2="109.551" y2="182.411"/>
			<path style="fill:#CE4687;" d="M131.718,182.411h-14.7c-1.449,0-2.624-1.175-2.624-2.624v-0.801c0-1.449,1.175-2.624,2.624-2.624
				h14.7c1.449,0,2.624,1.175,2.624,2.624v0.801C134.342,181.236,133.167,182.411,131.718,182.411z"/>
			<path style="fill:#4077C6;" d="M186.851,182.411h-26.295c-1.449,0-2.624-1.175-2.624-2.624v-0.801
				c0-1.449,1.175-2.624,2.624-2.624h26.295c1.449,0,2.624,1.175,2.624,2.624v0.801C189.475,181.236,188.3,182.411,186.851,182.411z
				"/>
			<path style="fill:#58AFDC;" d="M151.568,182.411h-10.746c-1.449,0-2.624-1.175-2.624-2.624v-0.801
				c0-1.449,1.175-2.624,2.624-2.624h10.746c1.449,0,2.624,1.175,2.624,2.624v0.801
				C154.193,181.236,153.018,182.411,151.568,182.411z"/>
			
				<line style="fill:none;stroke:#FFFFFF;stroke-width:2;stroke-linecap:round;stroke-miterlimit:10;" x1="109.551" y1="191.893" x2="109.551" y2="197.942"/>
			<path style="fill:#4077C6;" d="M121.743,197.942h-4.726c-1.449,0-2.624-1.175-2.624-2.624v-0.8c0-1.449,1.175-2.624,2.624-2.624
				h4.726c1.449,0,2.624,1.175,2.624,2.624v0.8C124.368,196.767,123.193,197.942,121.743,197.942z"/>
			<path style="fill:#CE4687;" d="M186.851,197.942h-55.63c-1.449,0-2.624-1.175-2.624-2.624v-0.8c0-1.449,1.175-2.624,2.624-2.624
				h55.63c1.449,0,2.624,1.175,2.624,2.624v0.8C189.475,196.767,188.3,197.942,186.851,197.942z"/>
			
				<line style="fill:none;stroke:#FFFFFF;stroke-width:2;stroke-linecap:round;stroke-miterlimit:10;" x1="109.551" y1="207.424" x2="109.551" y2="213.472"/>
			<path style="fill:#58AFDC;" d="M145.813,213.472h-28.796c-1.449,0-2.624-1.175-2.624-2.624v-0.801
				c0-1.449,1.175-2.624,2.624-2.624h28.796c1.449,0,2.624,1.175,2.624,2.624v0.801
				C148.437,212.297,147.262,213.472,145.813,213.472z"/>
			<path style="fill:#FCE292;" d="M184.873,213.472h-28.056c-1.449,0-2.624-1.175-2.624-2.624v-0.801
				c0-1.449,1.175-2.624,2.624-2.624h28.056c1.449,0,2.624,1.175,2.624,2.624v0.801
				C187.497,212.297,186.322,213.472,184.873,213.472z"/>
		</g>
		<g>
			<path style="fill:#6D3744;" d="M172.061,78.343c6.699-3.152,5.916-14.906-2.449-14.274c-1.4,0.077-1.758,0.495-2.924-0.204
				c-7.397-14.889-42.755-17.193-22.033-4.08c-6.015-1.645-14.005-3.837-19.514-0.052c-1.231,1.31-1.237,3.837,0.384,4.612
				c1.303,0.623,3.247,0.033,4.001,1.265c-17.986,11.294-11.076,41.173,9.837,43.376C153.417,103.623,161.635,88.554,172.061,78.343
				z"/>
			<path style="fill:#542633;" d="M150.448,102.105c-3.318,2.88-6.95,5.31-11.082,6.888c-14.802-1.565-22.591-16.981-19.498-29.867
				c3.181,0.989,7.602,1.703,11.734,0.075l17.47,19.323C149.07,98.523,149.709,100.139,150.448,102.105z"/>
			<path style="fill:#F4B8AB;" d="M171.581,81.841c1.393,20.424-1.857,29.476-13.462,30.637v4.758c0,3.525-2.858,6.383-6.383,6.383
				l0,0c-3.525,0-6.383-2.857-6.383-6.383v-4.758c0,0-9.284-3.946-11.141-9.748c-1.857-5.802,0-0.928,0-0.928l-0.825-23.674h38.495
				L171.581,81.841z"/>
			<path style="fill:#F4B8AB;" d="M134.798,92.905c-2.919-5.322-6.352-3.09-7.039,0c-0.687,3.09,5.494,10.614,7.039,7.968
				C136.343,98.227,134.798,92.905,134.798,92.905z"/>
			<g>
				<path style="fill:#191918;" d="M149.07,94.277c-0.706,0-1.064-0.876-1.064-2.603c0-1.727,0.358-2.604,1.064-2.604
					c0.706,0,1.063,0.876,1.063,2.604C150.134,93.401,149.776,94.277,149.07,94.277z"/>
			</g>
			<g>
				<path style="fill:#191918;" d="M161.615,94.277c-0.706,0-1.064-0.876-1.064-2.603c0-1.727,0.358-2.604,1.064-2.604
					c0.706,0,1.064,0.876,1.064,2.604C162.679,93.401,162.321,94.277,161.615,94.277z"/>
			</g>
			<path style="fill:none;stroke:#E56A85;stroke-linecap:round;stroke-miterlimit:10;" d="M156.999,102.706
				c-6.009,0.138-10.668-4.188-10.668-4.188"/>
			<path style="opacity:0.53;fill:#DD6595;" d="M158.119,112.478c-5.141,0.462-11.102,0.274-11.102,0.274l11.102,4.484V112.478z"/>
			<path style="opacity:0.53;fill:#DD6595;" d="M134.487,94.332c-2.602-2.731-3.88-1.609-3.706,1.229
				c0.174,2.839,3.595,4.872,4.703,4.059C136.592,98.807,134.487,94.332,134.487,94.332z"/>
			<path style="fill:#6D3744;" d="M169.27,74.33c-8.407,9.089-20.222,10.64-27.947,10.225c-7.725-0.415,2.272-10.225,2.272-10.225
				s-7.031,11.804-14.087,8.407c-7.056-3.397-0.664-15.905,16.823-15.678C163.817,67.287,169.27,74.33,169.27,74.33z"/>
		</g>
		<path style="opacity:0.27;fill:#0E153F;" d="M139.44,446.49c0,0-1.27,0.33-3.36,0.8c-3.04-5.82-8.43-13.12-17.36-16.57
			c1.2-1.82,1.91-3.99,1.85-6.65h16.95L139.44,446.49z"/>
		<path style="fill:#58AEDD;" d="M172.19,446.49c0,0,1.27,0.33,3.36,0.8c9.6,2.19,36.57,7.57,37.9-0.8
			c1.03-6.43-15.01-7.31-20.54-15.77c-1.2-1.82-1.91-3.99-1.85-6.65h-16.95L172.19,446.49z"/>
		<path style="opacity:0.27;fill:#0E153F;" d="M172.19,446.49c0,0,1.27,0.33,3.36,0.8c3.04-5.82,8.43-13.12,17.36-16.57
			c-1.2-1.82-1.91-3.99-1.85-6.65h-16.95L172.19,446.49z"/>
	</g>
	<g>
		<path style="fill:#6D3744;" d="M409.702,246.904c0,0,2,7.142-1.755,11.417c-17.719,20.169-27.06,88.33-73.92,95.03
			c-53.63,7.66-64.31-37.82-51.74-64.08c1.35-2.84,2.97-5.44,4.84-7.74c19.21-23.58,44.67-17.08,58.97-23.63
			c14.29-6.56,16.08-26.5,32.16-29.63C394.337,225.141,411.13,227.191,409.702,246.904z"/>
		<path style="fill:#542633;" d="M407.947,258.321c-6.57,26.03-27.06,88.33-73.92,95.03c-53.63,7.66-64.31-37.82-51.74-64.08
			c2.98,14.17,22.32,28.52,35.13,5.32c14.95-27.07,40.41-21.82,50.43-30.94C367.847,263.651,389.607,259.831,407.947,258.321z"/>
		<path style="fill:#363E7A;" d="M348.836,365.602c-10.739,31.836-3.049,49.223,23.788,55.359l-44.243,11.25v16.875
			c0,0,86.458,0,103.826,0c17.368,0,22.3-34.773-1.644-52.671c-23.943-17.898-42.922-40.009-42.922-40.009L348.836,365.602z"/>
		<path style="fill:#47A7D1;" d="M328.381,436.302c-9.205-0.511-14.318-12.026-16.875-7.547
			c-2.557,4.479-23.012,20.331-23.012,20.331h39.887V436.302z"/>
		<path style="fill:#58AEDD;" d="M305.803,436.302c-9.205-0.511-14.318-12.026-16.875-7.547
			c-2.557,4.479-23.011,20.331-23.011,20.331h39.886V436.302z"/>
		<path style="fill:#42498D;" d="M409.632,449.086h-50.24c-26.77,0-53.59,0-53.59,0v-16.88l44.24-11.25
			c-26.83-6.13-34.52-23.52-23.78-55.35l38.8-9.2c0,0,2.34,2.72,6.41,7.03c0.07,0.09,0.11,0.13,0.11,0.13
			c7.56,7.98,20.94,21.29,36.4,32.85C431.932,414.316,426.992,449.086,409.632,449.086z"/>
		<path style="opacity:0.27;fill:#0E153F;" d="M359.392,449.086c-26.77,0-53.59,0-53.59,0v-16.88l44.24-11.25
			c-26.83-6.13-34.52-23.52-23.78-55.35l38.8-9.2c0,0,2.34,2.72,6.41,7.03c0.07,0.09,0.11,0.13,0.11,0.13
			c-45.43,11.51-29.21,41.19-16.15,49.9c13.06,8.7,38.79,15.29,38.79,15.29l-36.42-3.42c-9.89,0.79-28.49-0.23-39.17,8
			C307.942,441.556,343.562,447.906,359.392,449.086z"/>
		<path style="fill:#58AEDD;" d="M397.718,276.784c15.131,0.653,21.967,21.121,14.931,37.708
			c-7.037,16.586-16.142,51.11-16.142,51.11h-72.651l24.008-68.297l23.613-22.057L397.718,276.784z"/>
		<path style="opacity:0.58;fill:#3F6CBA;" d="M360.505,297.929c-4.571,26.284,6,27.141,14.571,21.142
			c8.571-6,6.285,41.141,6.285,41.141l-7.428,6.285l-47.426-7.142L360.505,297.929z"/>
		<g>
			<rect x="374.357" y="306.785" style="fill:#D6E6FD;" width="129.884" height="99.293"/>
			<rect x="383.651" y="368.791" style="fill:#F2CD64;" width="25.712" height="25.712"/>
			<rect x="383.651" y="314.492" style="fill:#FFFFFF;" width="111.296" height="9.054"/>
			<circle style="fill:#CE4687;" cx="390.445" cy="319.019" r="1.757"/>
			<circle style="fill:#42498D;" cx="398.677" cy="319.019" r="1.757"/>
			<circle style="fill:#47C7BA;" cx="406.908" cy="319.019" r="1.757"/>
			<rect x="383.651" y="332.226" style="opacity:0.29;fill:#42498D;" width="25.712" height="25.712"/>
			
				<rect x="382.699" y="341.652" transform="matrix(0.8616 0.5076 -0.5076 0.8616 234.7188 -151.7245)" style="fill:#CE4687;" width="25.712" height="25.712"/>
			<rect x="426.443" y="332.226" style="fill:#42498D;" width="25.712" height="25.712"/>
			<rect x="469.234" y="332.226" style="fill:#47C7BA;" width="25.712" height="25.712"/>
			<rect x="426.443" y="368.791" style="fill:#47C7BA;" width="25.712" height="25.712"/>
			<rect x="469.234" y="368.791" style="fill:#42498D;" width="25.712" height="25.712"/>
		</g>
		<path style="fill:#F4B8AB;" d="M368.202,352.846c6.49,5.518,12.275,6.197,15.674,3.271c3.399-2.926,7.065,1.31,9.234,0.681
			c2.168-0.629-2.894-3.92-2.894-3.92s5.724,3.199,6.384,1.845c0.661-1.353-4.432-4.533-4.432-4.533s6.284,3.127,7.012,1.358
			c0.729-1.769-5.51-4.612-5.51-4.612s5.913,1.558,6.553,0.483c0.64-1.074-5.015-2.333-9.54-5.61
			c-4.525-3.278-6.306-3.83-11.154-0.823c-4.848,3.007-10.653,2.719-10.653,2.719L368.202,352.846z"/>
		<path style="fill:#58AEDD;" d="M374.59,275.227c-27.757-1.815-33.823,10.46-45.53,35.576
			c-11.707,25.116-11.426,36.604-3.257,41.238c8.169,4.634,42.658,6.282,42.658,6.282l5.106-16.197l-27.274-12.314
			c0,0,8.054-23.594,16.409-34.176C371.058,285.054,374.59,275.227,374.59,275.227z"/>
		<path style="fill:#CBE9F7;" d="M396.34,276.612c5.547,5.189,6.263,8.41,4.474,11.81c-1.789,3.4-6.263,0.179-6.263,0.179
			s3.221,6.979-3.4,7.874c-6.621,0.895-7.337-4.653-7.337-4.653s-3.937,3.4-7.874,1.074c-3.937-2.326-1.074-7.516-1.074-7.516
			s-4.474,1.968-4.295-3.4c0.179-5.368,5.547-7.337,11.989-7.695C389.004,273.928,396.34,276.612,396.34,276.612z"/>
		<g>
			<path style="fill:#F4B8AB;" d="M407.683,246.819c1.393,20.424-1.857,29.476-13.462,30.637v4.758c0,3.525-2.858,6.383-6.383,6.383
				l0,0c-3.525,0-6.383-2.857-6.383-6.383v-4.758c0,0-9.284-3.946-11.141-9.748c-1.857-5.802,0-0.928,0-0.928l-0.825-23.674h34.769
				C406.266,243.105,407.846,244.818,407.683,246.819L407.683,246.819z"/>
			<path style="fill:#F4B8AB;" d="M370.9,257.883c-2.919-5.322-6.352-3.09-7.039,0c-0.687,3.09,5.494,10.613,7.039,7.968
				C372.445,263.205,370.9,257.883,370.9,257.883z"/>
			<g>
				<path style="fill:#191918;" d="M385.173,259.255c-0.706,0-1.064-0.876-1.064-2.603c0-1.727,0.358-2.604,1.064-2.604
					c0.706,0,1.063,0.876,1.063,2.604C386.236,258.379,385.879,259.255,385.173,259.255z"/>
			</g>
			<g>
				<path style="fill:#191918;" d="M397.718,259.255c-0.706,0-1.064-0.876-1.064-2.603c0-1.727,0.358-2.604,1.064-2.604
					c0.706,0,1.064,0.876,1.064,2.604C398.782,258.379,398.424,259.255,397.718,259.255z"/>
			</g>
			<path style="fill:none;stroke:#E56A85;stroke-linecap:round;stroke-miterlimit:10;" d="M393.101,267.684
				c-6.009,0.138-10.668-4.188-10.668-4.188"/>
			<path style="opacity:0.53;fill:#DD6595;" d="M394.222,277.456c-5.141,0.462-11.102,0.274-11.102,0.274l11.102,4.484V277.456z"/>
			<path style="opacity:0.53;fill:#DD6595;" d="M370.59,259.31c-2.602-2.731-3.88-1.609-3.706,1.229
				c0.174,2.839,3.595,4.872,4.703,4.059C372.695,263.785,370.59,259.31,370.59,259.31z"/>
		</g>
		<path style="fill:#6D3744;" d="M402.613,235.57c8.529,14.501-27.903,21.682-35.745,15.998c-7.842-5.685,1.106-13.19,12.075-14.633
			C389.912,235.492,402.613,235.57,402.613,235.57z"/>
	</g>
	<g>
		<g>
			<path style="fill:#161B41;" d="M611.809,98.517c8.773-9.073,2.049-22.352-11.331-24.949c-13.38-2.598-19.442,2.268-19.442,2.268
				s-15.588-0.407-22.515,15.838c-6.928,16.244,5.773,27.149,5.484,31.944c-0.289,4.795-32.041-2.422-27.134,20.96
				c4.907,23.381,39.752,33.808,61.876,12.43C620.87,135.629,618.624,107.879,611.809,98.517z"/>
			<path style="opacity:0.52;fill:#0A0E21;" d="M598.75,157.01c-6.55,6.32-14.2,9.86-21.87,11.11c-0.07,0.01-0.14,0.02-0.22,0.03
				c-3.34,0.35-9.23,0.07-15.47-0.62c-12.02-2.88-21.88-11.31-24.32-22.95c-4.91-23.38,26.85-16.17,27.13-20.96
				c0.07-1.09-0.54-2.51-1.45-4.23c1.71-0.35,2.94-3.33,2.72-9.03c-0.51-13.08,6.41-14.88,6.41-14.88s31.31,26.17,40.13,3.04
				C618.62,107.88,620.87,135.63,598.75,157.01z"/>
			<path style="fill:#CE4687;" d="M586.257,128.88c-22.183,0.395-31.516,5.304-43.96,23.46
				c-12.444,18.157-15.167,41.546-11.278,45.601c3.889,4.055,24.551,15.531,24.551,15.531h86.354c0,0,17.818-15.258,18.984-31.061
				c1.167-15.803-19.833-48.871-27.611-53.531C625.518,124.219,586.257,128.88,586.257,128.88z"/>
			<path style="fill:#A33B76;" d="M558.254,194.865c-5.78-10.555-11.058-17.592-11.058-17.592s9.413,5.158,13.183-0.874
				c3.77-6.032,12.147-9.247,14.66-11.257c2.513-2.011,10.567,8.73,23.384,8.228c12.817-0.503,21.613-7.806,28.148-3.031
				c6.534,4.775,9.842-5.882,9.842-5.882l2.262,18.346l9.55-9.55l-10.555,25.383L558.254,194.865z"/>
			<path style="fill:#E073AC;" d="M597.055,126.873c6.353-0.529,13.942,11.471,4.941,21.531l-10.589-7.942l-6,9.706
				c0,0-17.471-12.706-5.471-21.001L597.055,126.873z"/>
			<path style="fill:#42498D;" d="M597.6,228.6v0.67c0,9-0.22,20.67-0.59,33.83c-1.8,63.31-7.06,160.97-7.06,160.97h-23.64
				c0,0-3.63-92.08-4.77-151.68c-0.29-15.07-0.42-28.07-0.29-36.97c0.04-2.66,0.1-4.95,0.19-6.82H597.6z"/>
			<path style="fill:#42498D;" d="M639.23,268.7c0.01,59.41-1.45,155.37-1.45,155.37h-23.65c0,0-10.69-97.84-14.38-161.15
				c-0.77-13.08-1.23-24.69-1.24-33.65v-0.67h40.22c0.01,0.14,0.01,0.28,0.02,0.43C639.09,236.77,639.22,251.14,639.23,268.7z"/>
			<path style="opacity:0.27;fill:#0E153F;" d="M597.6,229.27c0,9-0.22,20.67-0.59,33.83c-13.88,1.04-27.12,4.36-35.47,9.29
				c-0.29-15.07-0.42-28.07-0.29-36.97c6.36-3.13,12.49-5.86,12.49-5.86S584.58,229.42,597.6,229.27z"/>
			<path style="opacity:0.27;fill:#0E153F;" d="M639.23,268.7c-10.49-4.87-25.18-6.55-39.48-5.78c-0.77-13.08-1.23-24.69-1.24-33.65
				c15.35-0.17,33.4-0.33,40.24-0.24C639.09,236.77,639.22,251.14,639.23,268.7z"/>
			<path style="fill:#58AEDD;" d="M585.85,446.49c0,0-3.38,0.87-8.21,1.84c-11.7,2.37-31.9,5.37-33.05-1.84
				c-1.11-6.94,17.64-7.41,21.64-17.91v-0.01c0.52-1.33,0.79-2.82,0.75-4.5h16.95L585.85,446.49z"/>
			<path style="fill:#58AEDD;" d="M659.86,446.49c-1.14,7.16-21.03,4.26-32.77,1.9c-4.98-1-8.49-1.9-8.49-1.9l1.92-22.42h16.95
				c-0.06,2.78,0.71,5.03,2.01,6.9C645.16,439.2,660.88,440.12,659.86,446.49z"/>
			<g>
				<rect x="555.57" y="160.947" style="fill:#D6E6FD;" width="86.354" height="92.247"/>
				<circle style="fill:#42498D;" cx="598.746" cy="164.019" r="23.36"/>
				
					<text transform="matrix(1 0 0 1 588.2236 170.5288)" style="fill:#FFFFFF; font-family:'FontAwesome5FreeSolid'; font-size:21.0431px;">user</text>
				<g>
					<rect x="568.5" y="195.393" style="opacity:0.29;fill:#42498D;" width="60.492" height="8.566"/>
					<rect x="568.5" y="210.334" style="opacity:0.29;fill:#42498D;" width="60.492" height="8.566"/>
					<rect x="568.5" y="225.276" style="opacity:0.29;fill:#42498D;" width="60.492" height="8.566"/>
					<rect x="568.5" y="195.393" style="fill:#FFFFFF;" width="10.488" height="8.566"/>
					<rect x="568.5" y="210.334" style="fill:#FFFFFF;" width="10.488" height="8.566"/>
					<rect x="568.5" y="225.276" style="fill:#FFFFFF;" width="10.488" height="8.566"/>
				</g>
			</g>
			<g>
				<path style="fill:#F4B8AB;" d="M611.507,95.864c1.393,20.424-1.857,29.476-13.462,30.637v4.758c0,3.525-2.858,6.382-6.383,6.382
					l0,0c-3.525,0-6.382-2.857-6.382-6.382v-4.758c0,0-9.284-3.946-11.141-9.748c-1.857-5.802,0-0.928,0-0.928l-0.825-23.674h34.769
					C610.09,92.151,611.669,93.864,611.507,95.864L611.507,95.864z"/>
				<path style="fill:#F4B8AB;" d="M574.724,106.928c-2.919-5.322-6.352-3.09-7.039,0c-0.687,3.09,5.494,10.614,7.039,7.968
					C576.269,112.25,574.724,106.928,574.724,106.928z"/>
				<g>
					<path style="fill:#191918;" d="M588.997,108.3c-0.706,0-1.064-0.876-1.064-2.603c0-1.727,0.358-2.604,1.064-2.604
						c0.706,0,1.063,0.876,1.063,2.604C590.06,107.425,589.702,108.3,588.997,108.3z"/>
				</g>
				<g>
					<path style="fill:#191918;" d="M601.541,108.3c-0.706,0-1.064-0.876-1.064-2.603c0-1.727,0.358-2.604,1.064-2.604
						c0.706,0,1.064,0.876,1.064,2.604C602.605,107.425,602.247,108.3,601.541,108.3z"/>
				</g>
				<path style="fill:none;stroke:#E56A85;stroke-linecap:round;stroke-miterlimit:10;" d="M596.925,116.729
					c-6.009,0.138-10.668-4.188-10.668-4.188"/>
				<path style="opacity:0.53;fill:#DD6595;" d="M598.045,126.501c-5.141,0.462-11.102,0.274-11.102,0.274l11.102,4.484V126.501z"/>
				<path style="opacity:0.53;fill:#DD6595;" d="M574.414,108.356c-2.602-2.731-3.88-1.609-3.706,1.229
					c0.174,2.839,3.595,4.872,4.703,4.059C576.518,112.83,574.414,108.356,574.414,108.356z"/>
			</g>
			<path style="fill:#161B41;" d="M606.437,84.616c-11.835,16.663-27.903,21.682-35.745,15.998
				c-7.842-5.685,1.106-13.19,12.075-14.633C593.736,84.537,606.437,84.616,606.437,84.616z"/>
		</g>
		<path style="fill:#F4B8AB;" d="M642.208,201.487c8.254,2.263,6.52,16.007,4.819,19.639c-1.701,3.631-8.084,4.311-8.924,2.074
			s1.342-2.546,1.342-2.546s-5.176-0.865-5.54-2.516c-0.364-1.651,3.812-3.448,3.812-3.448s-3.952-1.006-3.8-2.64
			c0.152-1.634,4.699-1.764,4.699-1.764s-3.724-2.44-3.213-3.799c0.511-1.359,6.346-1.179,6.346-1.179L642.208,201.487z"/>
		<path style="fill:#F4B8AB;" d="M555.455,201.487c-8.254,2.263-6.52,16.007-4.819,19.639c1.701,3.631,8.084,4.311,8.924,2.074
			c0.84-2.238-1.342-2.546-1.342-2.546s5.176-0.865,5.54-2.516c0.364-1.651-3.812-3.448-3.812-3.448s3.952-1.006,3.8-2.64
			c-0.153-1.634-4.7-1.764-4.7-1.764s3.724-2.44,3.213-3.799c-0.511-1.359-6.346-1.179-6.346-1.179L555.455,201.487z"/>
		<path style="opacity:0.27;fill:#0E153F;" d="M585.85,446.49c0,0-3.38,0.87-8.21,1.84c-1.51-5.62-4.72-13.81-11.41-19.75v-0.01
			c0.52-1.33,0.79-2.82,0.75-4.5h16.95L585.85,446.49z"/>
		<path style="opacity:0.27;fill:#0E153F;" d="M639.48,430.97c-7.05,4.63-10.6,11.53-12.39,17.42c-4.98-1-8.49-1.9-8.49-1.9
			l1.92-22.42h16.95C637.41,426.85,638.18,429.1,639.48,430.97z"/>
	</g>
	<g>
		
			<text transform="matrix(1 0 0 1 430.3418 272.4063)" style="fill:#CBE9F7; font-family:'Lato-Black'; font-size:52.9761px; letter-spacing:-5;">&lt;/&gt;</text>
	</g>
	<g>
		<g>
			<g>
				<circle style="fill:#58AEDD;" cx="368.912" cy="144.507" r="49.921"/>
				
					<ellipse transform="matrix(0.7071 -0.7071 0.7071 0.7071 9.5668 356.407)" style="fill:#58AEDD;" cx="435.005" cy="166.655" rx="27.773" ry="27.773"/>
				
					<ellipse transform="matrix(0.7071 -0.7071 0.7071 0.7071 -32.2399 275.8669)" style="fill:#58AEDD;" cx="316.881" cy="176.851" rx="17.578" ry="17.578"/>
				<polygon style="fill:#58AEDD;" points="316.881,194.428 435.005,194.428 435.005,146.617 316.178,171.226 				"/>
			</g>
		</g>
		<path style="opacity:0.09;fill:#0E153F;" d="M462.784,166.659c0,15.337-12.442,27.766-27.779,27.766H316.886
			c-9.709,0-17.586-7.864-17.586-17.573c0-7.433,4.618-13.802,11.149-16.36c-3.501,6.827-1.777,25.167,10.799,25.167h84.254
			c44.975,0,54.791-14.072,38.834-45.163C455.082,144.32,462.784,154.594,462.784,166.659z"/>
		<polygon style="fill:#CBE9F7;" points="398.442,175.129 385.125,175.129 385.125,194.398 375.241,194.398 374.675,194.398 
			374.11,194.398 364.226,194.398 364.226,175.129 350.909,175.129 374.11,150.177 374.675,149.571 375.241,150.177 		"/>
	</g>
</g>
</svg>
